<?xml version="1.0" encoding="UTF-8" standalone="no"?>
<svg
   xmlns:dc="http://purl.org/dc/elements/1.1/"
   xmlns:cc="http://creativecommons.org/ns#"
   xmlns:rdf="http://www.w3.org/1999/02/22-rdf-syntax-ns#"
   xmlns:svg="http://www.w3.org/2000/svg"
   xmlns="http://www.w3.org/2000/svg"
   xmlns:sodipodi="http://sodipodi.sourceforge.net/DTD/sodipodi-0.dtd"
   xmlns:inkscape="http://www.inkscape.org/namespaces/inkscape"
   version="1.1"
   viewBox="0 0 200 200"
   id="svg40"
   sodipodi:docname="apple.svg"
   width="200"
   height="200"
   inkscape:version="0.92.2 5c3e80d, 2017-08-06">
  <metadata
     id="metadata44">
    <rdf:RDF>
      <cc:Work
         rdf:about="">
        <dc:format>image/svg+xml</dc:format>
        <dc:type
           rdf:resource="http://purl.org/dc/dcmitype/StillImage" />
      </cc:Work>
    </rdf:RDF>
  </metadata>
  <sodipodi:namedview
     pagecolor="#ffffff"
     bordercolor="#666666"
     borderopacity="1"
     objecttolerance="10"
     gridtolerance="10"
     guidetolerance="10"
     inkscape:pageopacity="0"
     inkscape:pageshadow="2"
     inkscape:window-width="1135"
     inkscape:window-height="612"
     id="namedview42"
     showgrid="true"
     inkscape:zoom="1.7028286"
     inkscape:cx="-0.78753981"
     inkscape:cy="77.810225"
     inkscape:window-x="129"
     inkscape:window-y="1"
     inkscape:window-maximized="0"
     inkscape:current-layer="svg40">
    <inkscape:grid
       type="xygrid"
       id="grid851" />
  </sodipodi:namedview>
  <defs
     id="defs28">
    <linearGradient
       id="d"
       x1="98"
       x2="98"
       y1="98"
       y2="195.5"
       gradientUnits="userSpaceOnUse"
       gradientTransform="translate(133.9013,-38.7291)">
      <stop
         stop-color="#fff"
         offset="0"
         id="stop2" />
      <stop
         stop-color="#E9E5E5"
         offset="1"
         id="stop4" />
    </linearGradient>
    <linearGradient
       id="c"
       x1="0.5"
       x2="0.5"
       y2="0.87052">
      <stop
         stop-color="#0339F1"
         offset="0"
         id="stop7" />
      <stop
         stop-color="#01ADE5"
         offset="1"
         id="stop9" />
    </linearGradient>
    <linearGradient
       id="b"
       x1="54.804602"
       x2="101.43272"
       y1="58.307517"
       y2="109.79727"
       gradientTransform="matrix(0.93053152,0,0,1.0746546,3.9013,1.2709)"
       gradientUnits="userSpaceOnUse">
      <stop
         stop-color="#0756EE"
         offset="0"
         id="stop12" />
      <stop
         stop-color="#00A3F5"
         offset=".37448"
         id="stop14" />
      <stop
         stop-color="#18B5B6"
         offset=".71708"
         id="stop16" />
      <stop
         stop-color="#80DF43"
         offset="1"
         id="stop18" />
    </linearGradient>
    <linearGradient
       id="a"
       x1="149.64282"
       x2="201.0253"
       y1="47.501322"
       y2="108.70309"
       gradientTransform="matrix(0.82995643,0,0,1.2048825,3.9013,1.2709)"
       gradientUnits="userSpaceOnUse">
      <stop
         stop-color="#20BBA6"
         offset="0"
         id="stop21" />
      <stop
         stop-color="#9BEC23"
         offset=".4988"
         id="stop23" />
      <stop
         stop-color="#D9EF35"
         offset="1"
         id="stop25" />
    </linearGradient>
    <linearGradient
       y2="37.039019"
       x2="104.61061"
       x1="104.61061"
       id="c-7"
       gradientTransform="matrix(0.29208988,0,0,3.4236038,3.9013,1.2709)"
       y1="15.961631"
       gradientUnits="userSpaceOnUse">
      <stop
         id="stop942"
         offset="0"
         stop-color="#0339F1" />
      <stop
         id="stop944"
         offset="1"
         stop-color="#01ADE5" />
    </linearGradient>
  </defs>
  <rect
     style="fill:#c8b7b7;fill-opacity:1;stroke:none;stroke-width:3.77952766;stroke-linecap:round;stroke-linejoin:round;stroke-miterlimit:4;stroke-dasharray:none;stroke-dashoffset:26.39999962;stroke-opacity:0.94444442"
     id="rect853"
     width="200"
     height="200"
     x="0"
     y="0" />
  <path
     id="path56"
     d="m 143.34062,124 c -1.62437,3.75261 -3.54708,7.20686 -5.77477,10.38265 -3.03657,4.32942 -5.52283,7.32621 -7.43892,8.99035 -2.97026,2.73158 -6.15268,4.13052 -9.56052,4.21008 -2.44649,0 -5.39686,-0.69616 -8.83123,-2.10836 -3.44563,-1.40557 -6.61214,-2.10172 -9.50748,-2.10172 -3.036566,0 -6.293245,0.69615 -9.776671,2.10172 -3.488731,1.4122 -6.299208,2.14814 -8.448006,2.22107 -3.26795,0.13923 -6.525292,-1.29949 -9.776667,-4.32279 -2.075205,-1.81001 -4.670868,-4.91287 -7.78036,-9.30859 -3.33624,-4.69407 -6.07909,-10.13734 -8.227888,-16.34306 -2.30129,-6.70298 -3.454918,-13.1938 -3.454918,-19.47776 0,-7.198236 1.555409,-13.406612 4.670868,-18.60921 2.448477,-4.17892 5.705819,-7.475379 9.782634,-9.895346 4.076816,-2.419968 8.481819,-3.653156 13.225618,-3.732054 2.595663,0 5.999529,0.802899 10.229499,2.38085 4.218036,1.583255 6.92641,2.386154 8.113851,2.386154 0.88776,0 3.89648,-0.938815 8.99697,-2.810477 4.82336,-1.735746 8.89421,-2.454443 12.22913,-2.17134 9.03675,0.729305 15.82592,4.291629 20.34098,10.709514 -8.08203,4.896955 -12.07995,11.755738 -12.00039,20.554469 0.0729,6.85348 2.5592,12.55665 7.44555,17.08497 2.21443,2.10173 4.68744,3.72609 7.43891,4.87971 -0.5967,1.73045 -1.22656,3.38796 -1.89619,4.97917 z M 122.61509,42.443794 c 0,5.37173 -1.96249,10.387294 -5.87422,15.029653 -4.7206,5.518851 -10.43039,8.707903 -16.62219,8.204683 -0.0789,-0.644441 -0.124647,-1.322694 -0.124647,-2.035425 0,-5.15685 2.244937,-10.675701 6.231577,-15.188111 1.99034,-2.284714 4.5217,-4.184421 7.59141,-5.699851 3.06308,-1.492821 5.96041,-2.318395 8.68536,-2.459747 0.0796,0.7181 0.11271,1.436267 0.11271,2.148731 z"
     inkscape:connector-curvature="0"
     style="fill:#ffffff;stroke-width:0.6630047" />
</svg>
