<?xml version="1.0" encoding="UTF-8" standalone="no"?>
<!-- Created with Inkscape (http://www.inkscape.org/) -->

<svg
   xmlns:dc="http://purl.org/dc/elements/1.1/"
   xmlns:cc="http://creativecommons.org/ns#"
   xmlns:rdf="http://www.w3.org/1999/02/22-rdf-syntax-ns#"
   xmlns:svg="http://www.w3.org/2000/svg"
   xmlns="http://www.w3.org/2000/svg"
   xmlns:sodipodi="http://sodipodi.sourceforge.net/DTD/sodipodi-0.dtd"
   xmlns:inkscape="http://www.inkscape.org/namespaces/inkscape"
   width="200"
   height="200"
   version="1.1"
   id="svg4"
   sodipodi:docname="ar.svg"
   inkscape:version="0.92.2 5c3e80d, 2017-08-06">
  <metadata
     id="metadata10">
    <rdf:RDF>
      <cc:Work
         rdf:about="">
        <dc:format>image/svg+xml</dc:format>
        <dc:type
           rdf:resource="http://purl.org/dc/dcmitype/StillImage" />
      </cc:Work>
    </rdf:RDF>
  </metadata>
  <defs
     id="defs8">
    <path
       id="cv_element"
       d="M -69.6503905 120.638015113  A 139.300781 139.300781 120 1 1 +69.6503905 120.638015113  L 27.7089845 47.9933689801  A 55.417969 55.417969 120 1 0 -27.7089845 47.9933689801  L -69.6503905 120.638015113  Z" />
    <path
       id="path-1"
       d="M55.796806,25.9515066 L82.203194,10.7057714 L91.203194,26.2942286 L64.8660254,41.5 L91.203194,56.7057714 L82.203194,72.2942286 L55.796806,57.0484934 L55.796806,84 L37.796806,84 L37.796806,57.1284211 L9.79680602,73.2942286 L0.796806022,57.7057714 L28.8660254,41.5 L0.796806022,25.2942286 L9.79680602,9.70577137 L37.796806,25.8715789 L37.796806,0 L55.796806,0 L55.796806,25.9515066 Z" />
    <clipPath
       id="clipPath1222"
       clipPathUnits="userSpaceOnUse">
      <path
         inkscape:connector-curvature="0"
         id="path1220"
         d="M -11,-2 H 81 V 82 H -11 Z" />
    </clipPath>
    <clipPath
       id="clipPath1282"
       clipPathUnits="userSpaceOnUse">
      <path
         style="clip-rule:evenodd"
         inkscape:connector-curvature="0"
         id="path1280"
         d="m 44.79681,56.04849 26.40638,15.24574 9,-15.58846 L 53.86603,40.5 80.20319,25.29423 71.20319,9.705771 44.79681,24.95151 V -2 h -18 V 24.87158 L -1.203194,8.705771 -10.20319,24.29423 17.86603,40.5 -10.20319,56.70577 -1.203194,72.29423 26.79681,56.12842 V 82 h 18 z" />
    </clipPath>
    <clipPath
       id="clipPath1288"
       clipPathUnits="userSpaceOnUse">
      <path
         inkscape:connector-curvature="0"
         id="path1286"
         d="M -11,-2 H 81 V 82 H -11 Z" />
    </clipPath>
    <clipPath
       id="clipPath1294"
       clipPathUnits="userSpaceOnUse">
      <path
         inkscape:connector-curvature="0"
         id="path1292"
         d="M -13,-13 H 84 V 94 h -97 z" />
    </clipPath>
    <clipPath
       id="clipPath1298"
       clipPathUnits="userSpaceOnUse">
      <path
         inkscape:connector-curvature="0"
         id="path1296"
         d="M 0,0 H 71 V 81 H 0 Z" />
    </clipPath>
  </defs>
  <sodipodi:namedview
     pagecolor="#ffffff"
     bordercolor="#666666"
     borderopacity="1"
     objecttolerance="10"
     gridtolerance="10"
     guidetolerance="10"
     inkscape:pageopacity="0"
     inkscape:pageshadow="2"
     inkscape:window-width="1692"
     inkscape:window-height="990"
     id="namedview6"
     showgrid="false"
     inkscape:zoom="2.8284271"
     inkscape:cx="11.483122"
     inkscape:cy="60.535081"
     inkscape:window-x="0"
     inkscape:window-y="0"
     inkscape:window-maximized="0"
     inkscape:current-layer="svg4" />
  <rect
     style="opacity:1;fill:#c8b7b7;fill-opacity:1;fill-rule:nonzero;stroke:none;"
     width="200"
     height="200"
     x="0"
     y="0"
     id="rect2" />
  <g
     transform="matrix(1.7434541,0,0,-1.7434541,38.107379,170.60989)"
     inkscape:label="AR-icon"
     id="g1212">
    <g
       id="g1214" />
    <g
       id="g1216">
      <g
         clip-path="url(#clipPath1222)"
         id="g1218">
        <g
           transform="matrix(1,0,0,-1,35.39999,46.5)"
           id="g1224">
          <path
             inkscape:connector-curvature="0"
             id="path1226"
             style="fill:none;stroke:#ffffff;stroke-width:3;stroke-linecap:round;stroke-linejoin:round;stroke-miterlimit:10;stroke-dasharray:none;stroke-opacity:1"
             d="M 10.32051,0 0,6" />
        </g>
        <g
           transform="matrix(1,0,0,-1,56.39999,58.5)"
           id="g1228">
          <path
             inkscape:connector-curvature="0"
             id="path1230"
             style="fill:none;stroke:#ffffff;stroke-width:3;stroke-linecap:round;stroke-linejoin:round;stroke-miterlimit:10;stroke-dasharray:none;stroke-opacity:1"
             d="M 10.32051,0 0,6" />
        </g>
        <g
           transform="matrix(1,0,0,-1,4.399994,28.5)"
           id="g1232">
          <path
             inkscape:connector-curvature="0"
             id="path1234"
             style="fill:none;stroke:#ffffff;stroke-width:3;stroke-linecap:round;stroke-linejoin:round;stroke-miterlimit:10;stroke-dasharray:none;stroke-opacity:1"
             d="M 10.32051,0 0,6" />
        </g>
        <g
           transform="matrix(1,0,0,-1,34.39999,40.5)"
           id="g1236">
          <path
             inkscape:connector-curvature="0"
             id="path1238"
             style="fill:none;stroke:#ffffff;stroke-width:3;stroke-linecap:round;stroke-linejoin:round;stroke-miterlimit:10;stroke-dasharray:none;stroke-opacity:1"
             d="M 1,0 V 10" />
        </g>
        <g
           transform="matrix(1,0,0,-1,34.39999,13.5)"
           id="g1240">
          <path
             inkscape:connector-curvature="0"
             id="path1242"
             style="fill:none;stroke:#ffffff;stroke-width:3;stroke-linecap:round;stroke-linejoin:round;stroke-miterlimit:10;stroke-dasharray:none;stroke-opacity:1"
             d="M 1,0 V 10" />
        </g>
        <g
           transform="matrix(1,0,0,-1,34.39999,77.5)"
           id="g1244">
          <path
             inkscape:connector-curvature="0"
             id="path1246"
             style="fill:none;stroke:#ffffff;stroke-width:3;stroke-linecap:round;stroke-linejoin:round;stroke-miterlimit:10;stroke-dasharray:none;stroke-opacity:1"
             d="M 1,0 V 10" />
        </g>
        <g
           transform="matrix(1,0,0,-1,26.04409,45.84735)"
           id="g1248">
          <path
             inkscape:connector-curvature="0"
             id="path1250"
             style="fill:none;stroke:#ffffff;stroke-width:3;stroke-linecap:round;stroke-linejoin:round;stroke-miterlimit:10;stroke-dasharray:none;stroke-opacity:1"
             d="M 0,0 9.355899,5.347349" />
        </g>
        <g
           transform="matrix(1,0,0,-1,4.044095,58.84735)"
           id="g1252">
          <path
             inkscape:connector-curvature="0"
             id="path1254"
             style="fill:none;stroke:#ffffff;stroke-width:3;stroke-linecap:round;stroke-linejoin:round;stroke-miterlimit:10;stroke-dasharray:none;stroke-opacity:1"
             d="M 0,0 9.355899,5.347349" />
        </g>
        <g
           transform="matrix(1,0,0,-1,58.04409,27.84735)"
           id="g1256">
          <path
             inkscape:connector-curvature="0"
             id="path1258"
             style="fill:none;stroke:#ffffff;stroke-width:3;stroke-linecap:round;stroke-linejoin:round;stroke-miterlimit:10;stroke-dasharray:none;stroke-opacity:1"
             d="M 0,0 9.355899,5.347349" />
        </g>
        <g
           transform="matrix(1,0,0,-1,34.5,78.5)"
           id="g1260">
          <path
             inkscape:connector-curvature="0"
             id="path1262"
             style="fill:none;stroke:#ffffff;stroke-width:1;stroke-linecap:square;stroke-linejoin:miter;stroke-miterlimit:10;stroke-dasharray:none;stroke-opacity:0.5"
             d="M 1,0 V 76" />
        </g>
        <g
           transform="matrix(1,0,0,-1,2.323215,59.5598)"
           id="g1264">
          <path
             inkscape:connector-curvature="0"
             id="path1266"
             style="fill:none;stroke:#ffffff;stroke-width:1;stroke-linecap:square;stroke-linejoin:miter;stroke-miterlimit:10;stroke-dasharray:none;stroke-opacity:0.5"
             d="M 0,0 66.32667,38.21093" />
        </g>
        <g
           transform="matrix(1,0,0,-1,2.319057,59.62031)"
           id="g1268">
          <path
             inkscape:connector-curvature="0"
             id="path1270"
             style="fill:none;stroke:#ffffff;stroke-width:1;stroke-linecap:square;stroke-linejoin:miter;stroke-miterlimit:10;stroke-dasharray:none;stroke-opacity:0.5"
             d="M 0,38.26355 C 0,38.26355 22.11964,25.50903 66.35893,0" />
        </g>
        <g
           transform="matrix(1,0,0,-1,-3,79)"
           id="g1272">
          <path
             inkscape:connector-curvature="0"
             id="path1274"
             style="fill:none;stroke:#ffffff;stroke-width:1;stroke-linecap:butt;stroke-linejoin:miter;stroke-miterlimit:10;stroke-dasharray:none;stroke-opacity:0.5"
             d="m 38.5,0 33.34198,19.25 v 38.5 L 38.5,77 5.158022,57.75 v -38.5 z" />
        </g>
      </g>
    </g>
    <g
       id="g1276">
      <g
         clip-path="url(#clipPath1282)"
         id="g1278">
        <g
           clip-path="url(#clipPath1288)"
           id="g1284">
          <g
             id="g1290" />
          <g
             id="g1312">
            <g
               id="g1310"
               clip-path="url(#clipPath1294)">
              <g
                 id="g1300" />
              <g
                 id="g1308">
                <g
                   id="g1306"
                   clip-path="url(#clipPath1298)">
                  <g
                     id="g1304"
                     transform="matrix(1,0,0,-1,-3,79)">
                    <path
                       inkscape:connector-curvature="0"
                       id="path1302"
                       style="fill:none;stroke:#ffffff;stroke-width:3;stroke-linecap:butt;stroke-linejoin:miter;stroke-miterlimit:10;stroke-dasharray:none;stroke-opacity:1"
                       d="m 38.5,0 33.34198,19.25 v 38.5 L 38.5,77 5.158022,57.75 v -38.5 z" />
                  </g>
                </g>
              </g>
            </g>
          </g>
        </g>
      </g>
    </g>
  </g>
</svg>
