<?xml version="1.0" encoding="UTF-8" standalone="no"?>
<svg
   xmlns:dc="http://purl.org/dc/elements/1.1/"
   xmlns:cc="http://creativecommons.org/ns#"
   xmlns:rdf="http://www.w3.org/1999/02/22-rdf-syntax-ns#"
   xmlns:svg="http://www.w3.org/2000/svg"
   xmlns="http://www.w3.org/2000/svg"
   xmlns:sodipodi="http://sodipodi.sourceforge.net/DTD/sodipodi-0.dtd"
   xmlns:inkscape="http://www.inkscape.org/namespaces/inkscape"
   version="1.1"
   viewBox="0 0 200 200"
   id="svg40"
   sodipodi:docname="ci.svg"
   width="200"
   height="200"
   inkscape:version="0.92.2 5c3e80d, 2017-08-06">
  <metadata
     id="metadata44">
    <rdf:RDF>
      <cc:Work
         rdf:about="">
        <dc:format>image/svg+xml</dc:format>
        <dc:type
           rdf:resource="http://purl.org/dc/dcmitype/StillImage" />
      </cc:Work>
    </rdf:RDF>
  </metadata>
  <sodipodi:namedview
     pagecolor="#ffffff"
     bordercolor="#666666"
     borderopacity="1"
     objecttolerance="10"
     gridtolerance="10"
     guidetolerance="10"
     inkscape:pageopacity="0"
     inkscape:pageshadow="2"
     inkscape:window-width="1135"
     inkscape:window-height="612"
     id="namedview42"
     showgrid="true"
     inkscape:zoom="1.7028286"
     inkscape:cx="-49.529968"
     inkscape:cy="77.810225"
     inkscape:window-x="129"
     inkscape:window-y="1"
     inkscape:window-maximized="0"
     inkscape:current-layer="svg40">
    <inkscape:grid
       type="xygrid"
       id="grid851" />
  </sodipodi:namedview>
  <defs
     id="defs28">
    <linearGradient
       id="d"
       x1="98"
       x2="98"
       y1="98"
       y2="195.5"
       gradientUnits="userSpaceOnUse"
       gradientTransform="translate(133.9013,-38.7291)">
      <stop
         stop-color="#fff"
         offset="0"
         id="stop2" />
      <stop
         stop-color="#E9E5E5"
         offset="1"
         id="stop4" />
    </linearGradient>
    <linearGradient
       id="c"
       x1="0.5"
       x2="0.5"
       y2="0.87052">
      <stop
         stop-color="#0339F1"
         offset="0"
         id="stop7" />
      <stop
         stop-color="#01ADE5"
         offset="1"
         id="stop9" />
    </linearGradient>
    <linearGradient
       id="b"
       x1="54.804602"
       x2="101.43272"
       y1="58.307517"
       y2="109.79727"
       gradientTransform="matrix(0.93053152,0,0,1.0746546,3.9013,1.2709)"
       gradientUnits="userSpaceOnUse">
      <stop
         stop-color="#0756EE"
         offset="0"
         id="stop12" />
      <stop
         stop-color="#00A3F5"
         offset=".37448"
         id="stop14" />
      <stop
         stop-color="#18B5B6"
         offset=".71708"
         id="stop16" />
      <stop
         stop-color="#80DF43"
         offset="1"
         id="stop18" />
    </linearGradient>
    <linearGradient
       id="a"
       x1="149.64282"
       x2="201.0253"
       y1="47.501322"
       y2="108.70309"
       gradientTransform="matrix(0.82995643,0,0,1.2048825,3.9013,1.2709)"
       gradientUnits="userSpaceOnUse">
      <stop
         stop-color="#20BBA6"
         offset="0"
         id="stop21" />
      <stop
         stop-color="#9BEC23"
         offset=".4988"
         id="stop23" />
      <stop
         stop-color="#D9EF35"
         offset="1"
         id="stop25" />
    </linearGradient>
    <linearGradient
       y2="37.039019"
       x2="104.61061"
       x1="104.61061"
       id="c-7"
       gradientTransform="matrix(0.29208988,0,0,3.4236038,3.9013,1.2709)"
       y1="15.961631"
       gradientUnits="userSpaceOnUse">
      <stop
         id="stop942"
         offset="0"
         stop-color="#0339F1" />
      <stop
         id="stop944"
         offset="1"
         stop-color="#01ADE5" />
    </linearGradient>
  </defs>
  <rect
     style="fill:#444444;fill-opacity:1;stroke:none;stroke-width:3.77952766;stroke-linecap:round;stroke-linejoin:round;stroke-miterlimit:4;stroke-dasharray:none;stroke-dashoffset:26.39999962;stroke-opacity:0.94444442"
     id="rect853"
     width="200"
     height="200"
     x="0"
     y="0" />
  <path
     id="path87"
     d="M 86.259878,123.37501 C 82.478743,133.22597 71.543463,139.42783 60,140.024 c 0.556167,-11.09132 6.738021,-22.43873 16.841052,-26.25987 l 2.040612,2.08462 c -6.137841,6.09383 -8.246473,11.06332 -8.578574,13.84816 2.816846,-0.3401 8.026408,-2.43273 13.936182,-8.38652 z M 81.714514,77.993398 c -7.114134,-0.04001 -16.252876,3.645093 -23.070921,10.459137 -2.60078,2.596779 -4.889463,5.633691 -6.657997,9.034711 6.153846,-4.653396 12.915874,-5.941783 20.594178,-1.63249 2.264679,-5.977793 5.281584,-12.059618 9.13474,-17.861358 z M 102.53676,148.0144 c 3.40902,-1.76053 6.44193,-4.05321 9.04671,-6.65799 6.83405,-6.82605 10.49115,-16.00881 10.41913,-23.13494 -6.30189,4.12123 -12.50375,7.09012 -17.86936,9.18675 4.30929,7.68231 3.05691,14.46034 -1.59648,20.60618 z m 45.26158,-95.852751 c -1.71251,-0.120036 -3.39302,-0.176053 -5.04552,-0.176053 -37.3632,0 -57.877358,29.712913 -64.423322,52.051614 l 17.717316,17.71732 C 119.17375,114.3323 148.0144,94.638391 148.0144,57.763329 v -0.236071 c -0.008,-1.748525 -0.076,-3.537061 -0.21606,-5.365609 z M 124.0072,83.995198 c -4.42133,0 -8.0024,-3.581074 -8.0024,-8.0024 0,-4.421327 3.58107,-8.002401 8.0024,-8.002401 4.42133,0 8.00241,3.581074 8.00241,8.002401 0,4.421326 -3.58108,8.0024 -8.00241,8.0024 z"
     inkscape:connector-curvature="0"
     style="fill:#ffffff;stroke-width:4.0012002" />
</svg>
