<?xml version="1.0" encoding="UTF-8" standalone="no"?>
<svg
   xmlns:dc="http://purl.org/dc/elements/1.1/"
   xmlns:cc="http://creativecommons.org/ns#"
   xmlns:rdf="http://www.w3.org/1999/02/22-rdf-syntax-ns#"
   xmlns:svg="http://www.w3.org/2000/svg"
   xmlns="http://www.w3.org/2000/svg"
   xmlns:sodipodi="http://sodipodi.sourceforge.net/DTD/sodipodi-0.dtd"
   xmlns:inkscape="http://www.inkscape.org/namespaces/inkscape"
   version="1.1"
   viewBox="0 0 200 200"
   id="svg40"
   sodipodi:docname="electron.svg"
   width="200"
   height="200"
   inkscape:version="0.92.2 5c3e80d, 2017-08-06">
  <metadata
     id="metadata44">
    <rdf:RDF>
      <cc:Work
         rdf:about="">
        <dc:format>image/svg+xml</dc:format>
        <dc:type
           rdf:resource="http://purl.org/dc/dcmitype/StillImage" />
        <dc:title />
      </cc:Work>
    </rdf:RDF>
  </metadata>
  <sodipodi:namedview
     pagecolor="#ffffff"
     bordercolor="#666666"
     borderopacity="1"
     objecttolerance="10"
     gridtolerance="10"
     guidetolerance="10"
     inkscape:pageopacity="0"
     inkscape:pageshadow="2"
     inkscape:window-width="1135"
     inkscape:window-height="612"
     id="namedview42"
     showgrid="true"
     inkscape:zoom="1.2040817"
     inkscape:cx="67.362333"
     inkscape:cy="100.06701"
     inkscape:window-x="104"
     inkscape:window-y="11"
     inkscape:window-maximized="0"
     inkscape:current-layer="svg40">
    <inkscape:grid
       type="xygrid"
       id="grid851" />
  </sodipodi:namedview>
  <defs
     id="defs28">
    <linearGradient
       id="d"
       x1="98"
       x2="98"
       y1="98"
       y2="195.5"
       gradientUnits="userSpaceOnUse"
       gradientTransform="translate(133.9013,-38.7291)">
      <stop
         stop-color="#fff"
         offset="0"
         id="stop2" />
      <stop
         stop-color="#E9E5E5"
         offset="1"
         id="stop4" />
    </linearGradient>
    <linearGradient
       id="c"
       x1="0.5"
       x2="0.5"
       y2="0.87052">
      <stop
         stop-color="#0339F1"
         offset="0"
         id="stop7" />
      <stop
         stop-color="#01ADE5"
         offset="1"
         id="stop9" />
    </linearGradient>
    <linearGradient
       id="b"
       x1="54.804602"
       x2="101.43272"
       y1="58.307517"
       y2="109.79727"
       gradientTransform="matrix(0.93053152,0,0,1.0746546,3.9013,1.2709)"
       gradientUnits="userSpaceOnUse">
      <stop
         stop-color="#0756EE"
         offset="0"
         id="stop12" />
      <stop
         stop-color="#00A3F5"
         offset=".37448"
         id="stop14" />
      <stop
         stop-color="#18B5B6"
         offset=".71708"
         id="stop16" />
      <stop
         stop-color="#80DF43"
         offset="1"
         id="stop18" />
    </linearGradient>
    <linearGradient
       id="a"
       x1="149.64282"
       x2="201.0253"
       y1="47.501322"
       y2="108.70309"
       gradientTransform="matrix(0.82995643,0,0,1.2048825,3.9013,1.2709)"
       gradientUnits="userSpaceOnUse">
      <stop
         stop-color="#20BBA6"
         offset="0"
         id="stop21" />
      <stop
         stop-color="#9BEC23"
         offset=".4988"
         id="stop23" />
      <stop
         stop-color="#D9EF35"
         offset="1"
         id="stop25" />
    </linearGradient>
    <linearGradient
       y2="37.039019"
       x2="104.61061"
       x1="104.61061"
       id="c-7"
       gradientTransform="matrix(0.29208988,0,0,3.4236038,3.9013,1.2709)"
       y1="15.961631"
       gradientUnits="userSpaceOnUse">
      <stop
         id="stop942"
         offset="0"
         stop-color="#0339F1" />
      <stop
         id="stop944"
         offset="1"
         stop-color="#01ADE5" />
    </linearGradient>
  </defs>
  <rect
     style="fill:#c8b7b7;fill-opacity:1;stroke:none;stroke-width:3.77952766;stroke-linecap:round;stroke-linejoin:round;stroke-miterlimit:4;stroke-dasharray:none;stroke-dashoffset:26.39999962;stroke-opacity:0.94444442"
     id="rect853"
     width="200"
     height="200"
     x="0"
     y="0" />
  <g
     style="fill:#ffffff;fill-rule:nonzero"
     id="g905"
     transform="matrix(0.76656884,0,0,0.76656884,1.8791888,1.8791888)">
    <path
       inkscape:connector-curvature="0"
       d="M 100.502,71.69 C 74.497,66.954 53.935,71.911 45.74,86.105 c -6.115,10.592 -4.367,24.635 4.24,39.646 a 2.667,2.667 0 1 0 4.626,-2.653 C 46.854,109.576 45.345,97.457 50.359,88.772 57.167,76.981 75.507,72.559 99.546,76.937 a 2.667,2.667 0 0 0 0.956,-5.247 z m -36.999,72.307 c 10.515,11.555 24.176,22.394 39.756,31.388 37.723,21.78 77.883,27.601 97.675,14.106 a 2.667,2.667 0 1 0 -3.005,-4.406 c -17.714,12.078 -55.862,6.548 -92.003,-14.318 -15.114,-8.726 -28.343,-19.222 -38.478,-30.36 a 2.667,2.667 0 1 0 -3.945,3.59 z"
       id="path897"
       style="fill:#ffffff" />
    <path
       inkscape:connector-curvature="0"
       d="M 194.62,140.753 C 211.648,120.637 217.593,100.405 209.415,86.241 203.398,75.818 190.677,70.315 173.77,70.095 a 2.667,2.667 0 0 0 -0.069,5.333 c 15.205,0.198 26.165,4.939 31.096,13.48 6.792,11.765 1.49,29.807 -14.248,48.399 a 2.667,2.667 0 1 0 4.071,3.446 z M 150.859,72.578 c -15.396,3.299 -31.784,9.749 -47.522,18.835 -38.942,22.483 -64.345,55.636 -60.817,79.675 a 2.667,2.667 0 1 0 5.277,-0.775 c -3.133,-21.344 20.947,-52.769 58.207,-74.281 15.267,-8.815 31.135,-15.06 45.972,-18.239 a 2.667,2.667 0 1 0 -1.117,-5.215 z"
       id="path899"
       style="fill:#ffffff" />
    <path
       inkscape:connector-curvature="0"
       d="m 87.77,187.753 c 8.904,24.86 23.469,40.167 39.847,40.167 11.945,0 22.996,-8.143 31.614,-22.478 a 2.667,2.667 0 1 0 -4.571,-2.748 c -7.745,12.883 -17.258,19.892 -27.043,19.892 -13.605,0 -26.596,-13.652 -34.825,-36.63 a 2.667,2.667 0 1 0 -5.021,1.797 z m 81.322,-4.863 c 4.61,-14.728 7.085,-31.718 7.085,-49.423 0,-44.179 -15.463,-82.263 -37.487,-92.042 a 2.667,2.667 0 0 0 -2.164,4.874 c 19.643,8.723 34.317,44.866 34.317,87.168 0,17.177 -2.397,33.63 -6.84,47.83 a 2.667,2.667 0 1 0 5.09,1.593 z m 50.224,-2.612 c 0,-7.049 -5.714,-12.763 -12.763,-12.763 -7.049,0 -12.763,5.714 -12.763,12.763 0,7.049 5.714,12.763 12.763,12.763 7.049,0 12.763,-5.714 12.763,-12.763 z m -5.333,0 a 7.43,7.43 0 1 1 -14.86,0 7.43,7.43 0 0 1 14.86,0 z M 48.497,193.041 c 7.05,0 12.764,-5.714 12.764,-12.763 0,-7.049 -5.715,-12.763 -12.764,-12.763 -7.048,0 -12.763,5.714 -12.763,12.763 0,7.049 5.715,12.763 12.763,12.763 z m 0,-5.333 a 7.43,7.43 0 1 1 0,-14.86 7.43,7.43 0 0 1 0,14.86 z"
       id="path901"
       style="fill:#ffffff" />
    <path
       inkscape:connector-curvature="0"
       d="m 127.617,54.444 c 7.049,0 12.763,-5.714 12.763,-12.763 0,-7.049 -5.714,-12.763 -12.763,-12.763 -7.049,0 -12.763,5.714 -12.763,12.763 0,7.049 5.714,12.763 12.763,12.763 z m 0,-5.333 a 7.43,7.43 0 1 1 0,-14.86 7.43,7.43 0 0 1 0,14.86 z m 1.949,93.382 c -4.985,1.077 -9.896,-2.091 -10.975,-7.076 a 9.236,9.236 0 0 1 7.076,-10.976 c 4.985,-1.077 9.896,2.091 10.976,7.076 1.077,4.985 -2.091,9.897 -7.077,10.976 z"
       id="path903"
       style="fill:#ffffff" />
  </g>
</svg>
