<?xml version="1.0" encoding="UTF-8" standalone="no"?>
<!-- Created with Inkscape (http://www.inkscape.org/) -->

<svg
   xmlns:dc="http://purl.org/dc/elements/1.1/"
   xmlns:cc="http://creativecommons.org/ns#"
   xmlns:rdf="http://www.w3.org/1999/02/22-rdf-syntax-ns#"
   xmlns:svg="http://www.w3.org/2000/svg"
   xmlns="http://www.w3.org/2000/svg"
   xmlns:xlink="http://www.w3.org/1999/xlink"
   xmlns:sodipodi="http://sodipodi.sourceforge.net/DTD/sodipodi-0.dtd"
   xmlns:inkscape="http://www.inkscape.org/namespaces/inkscape"
   width="200"
   height="200"
   version="1.1"
   id="svg4"
   sodipodi:docname="opencv.svg"
   inkscape:version="0.92.2 5c3e80d, 2017-08-06">
  <metadata
     id="metadata10">
    <rdf:RDF>
      <cc:Work
         rdf:about="">
        <dc:format>image/svg+xml</dc:format>
        <dc:type
           rdf:resource="http://purl.org/dc/dcmitype/StillImage" />
      </cc:Work>
    </rdf:RDF>
  </metadata>
  <defs
     id="defs8">
    <path
       id="cv_element"
       d="M -69.6503905 120.638015113  A 139.300781 139.300781 120 1 1 +69.6503905 120.638015113  L 27.7089845 47.9933689801  A 55.417969 55.417969 120 1 0 -27.7089845 47.9933689801  L -69.6503905 120.638015113  Z" />
  </defs>
  <sodipodi:namedview
     pagecolor="#ffffff"
     bordercolor="#666666"
     borderopacity="1"
     objecttolerance="10"
     gridtolerance="10"
     guidetolerance="10"
     inkscape:pageopacity="0"
     inkscape:pageshadow="2"
     inkscape:window-width="1692"
     inkscape:window-height="990"
     id="namedview6"
     showgrid="false"
     inkscape:zoom="3.337544"
     inkscape:cx="59.800228"
     inkscape:cy="96.515916"
     inkscape:window-x="0"
     inkscape:window-y="0"
     inkscape:window-maximized="0"
     inkscape:current-layer="svg4" />
  <rect
     style="opacity:1;fill:#444444;fill-opacity:1;fill-rule:nonzero;stroke:none;"
     width="200"
     height="200"
     x="0"
     y="0"
     id="rect2" />
  <g
     id="g1078"
     transform="matrix(0.18548455,0,0,0.18548455,44.104303,31.398612)"
     style="fill:#ffffff">
    <use
       id="red"
       y="140"
       x="298"
       xlink:href="#cv_element"
       style="fill:#ffffff"
       width="100%"
       height="100%" />
    <use
       transform="rotate(180,457,415)"
       id="blue"
       y="415"
       x="457"
       xlink:href="#cv_element"
       style="fill:#ffffff"
       width="100%"
       height="100%" />
    <use
       transform="rotate(-120,142,415)"
       id="green"
       y="415"
       x="142"
       xlink:href="#cv_element"
       style="fill:#ffffff"
       width="100%"
       height="100%" />
    <g
       id="opencv_text"
       style="fill-rule:evenodd;fill:#ffffff">
      <path
         d="m 42.48,587.7 c 11.79,-1.06 23.71,-1.05 35.44,0.63 7.23,1.28 14.9,3.15 20.33,8.42 5.69,6.35 7.09,15.17 8.34,23.3 2.05,16.87 1.81,33.98 0,50.86 -1.21,8.24 -2.4,17.14 -7.8,23.84 -5.89,5.98 -14.59,7.68 -22.57,8.94 -11.78,1.47 -23.73,1.81 -35.56,0.63 -8.01,-0.82 -16.37,-2.23 -23.19,-6.8 -4.41,-2.8 -6.78,-7.74 -8.39,-12.53 C 5.85,675.01 5.44,664.41 5,654.01 4.95,640.27 5.21,626.39 7.89,612.87 c 1.45,-6.31 3.21,-13.25 8.54,-17.46 7.51,-5.45 17.06,-6.77 26.05,-7.71 z m 1.95,18.83 c 9.99,-0.8 20.19,-1.04 30.07,0.9 3.83,0.77 8.35,2.63 9.07,6.99 3,12.27 2.3,25.05 2.42,37.59 -0.37,8.92 -0.16,18.14 -3.15,26.68 -2.61,5.61 -9.72,6.07 -15.08,6.89 -10.75,0.61 -21.91,1.15 -32.34,-2.04 -4.81,-1.27 -6.33,-6.43 -7.07,-10.76 -2,-12.83 -1.35,-25.88 -1.1,-38.81 0.53,-7.25 0.44,-14.77 3.05,-21.66 2.99,-4.62 9.17,-5.03 14.13,-5.78 z"
         id="O"
         inkscape:connector-curvature="0"
         style="fill:#ffffff" />
      <path
         d="m 149.77,626.78 c 7.16,-4.55 16.05,-5.29 24.31,-4.54 7.71,0.66 16.27,3.28 20.4,10.38 4.93,8.91 5.21,19.44 5.55,29.38 -0.22,10.22 -0.41,20.89 -4.63,30.39 -2.41,5.77 -7.95,9.55 -13.88,11.04 -9.08,2.23 -19.06,2.47 -27.81,-1.15 -4.73,-1.85 -8,-5.87 -10.71,-9.99 0,15.57 0,31.14 0,46.71 h -20 c 0.01,-38.66 -0.02,-77.33 0.01,-115.99 6.47,-0.03 12.94,-0.03 19.4,0 -0.22,3.98 -0.44,7.95 -0.55,11.94 2.4,-2.93 4.63,-6.15 7.91,-8.17 z m 6.51,10.44 c 5.6,-0.43 11.52,-0.55 16.76,1.76 3.32,1.43 5.07,4.94 5.66,8.34 1.74,8.77 1.52,17.83 0.9,26.71 -0.62,5.36 -1.48,12.3 -7.38,14.38 -6.82,2.23 -14.6,2.37 -21.34,-0.24 -6.27,-2.64 -7,-10.23 -7.62,-16.12 -0.37,-9.04 -0.82,-18.34 1.73,-27.12 1.35,-4.98 6.53,-7.34 11.29,-7.71 z"
         id="p"
         inkscape:connector-curvature="0"
         style="fill:#ffffff" />
      <path
         d="m 223.96,626.93 c 9.83,-5.05 21.34,-5.23 32.13,-4.72 8.98,0.75 19.88,2.25 24.83,10.84 5.58,10.37 4.67,22.57 5.45,33.95 -18.24,0 -36.48,0 -54.71,0 0.64,5.87 -0.12,12.2 2.84,17.58 2.53,4.25 7.9,5.12 12.44,5.37 5.61,0.04 11.65,0.5 16.82,-2.11 2.96,-2.32 2.98,-6.44 3.36,-9.84 6.4,-0.01 12.8,-0.01 19.2,0 -0.24,6.68 -1.1,14.16 -6.46,18.86 -8.05,7.22 -19.57,7.97 -29.87,8.17 -9.09,-0.27 -18.69,-0.73 -26.83,-5.21 -6.59,-3.89 -8.69,-11.88 -9.85,-18.92 -1.47,-10.46 -1.84,-21.12 -0.59,-31.62 1.02,-8.29 3.25,-18.04 11.24,-22.35 z m 11.69,12.73 c 5.46,-3.32 12.22,-2.65 18.35,-2.56 3.8,0.41 8.43,0.63 10.9,3.99 2.52,4.15 2.07,9.23 2.09,13.89 -11.77,0.02 -23.53,0.05 -35.29,-0.01 0.18,-5.18 -0.23,-11.5 3.95,-15.31 z"
         id="e"
         inkscape:connector-curvature="0"
         style="fill:#ffffff" />
      <path
         d="m 328.96,626.88 c 6.92,-4.8 15.86,-5.47 24,-4.53 6.93,0.73 14.27,3.37 18.36,9.35 3.63,4.96 4.64,11.28 4.69,17.29 -0.03,18.34 0.01,36.67 -0.01,55.01 -6.34,0.01 -12.67,0.01 -18.99,0 -0.03,-17.35 0.02,-34.69 -0.03,-52.03 -0.19,-3.79 -0.04,-8.17 -2.89,-11.09 -3.04,-3.29 -7.81,-3.93 -12.06,-3.9 -5.14,-0.03 -10.7,0.85 -14.66,4.4 -3.87,3.3 -5.34,8.62 -5.36,13.54 -0.03,16.36 0.01,32.72 -0.02,49.07 -6.33,0.02 -12.66,0.02 -18.98,0.01 -0.01,-27 -0.01,-54 0,-81 6.22,-0.02 12.45,-0.01 18.67,0 -0.03,4.74 -0.5,9.45 -0.64,14.19 2.04,-3.83 4.18,-7.87 7.92,-10.31 z"
         id="n"
         inkscape:connector-curvature="0"
         style="fill:#ffffff" />
      <path
         d="m 410.39,591.4 c 10.48,-3.52 21.65,-4.02 32.61,-4.41 10.62,0.05 21.72,0.15 31.64,4.43 5.04,2.1 8.53,6.7 10.23,11.78 2.77,7.59 2.85,15.81 2.91,23.8 -7.31,0 -14.62,0.02 -21.92,-0.01 -0.12,-5.62 0.31,-11.92 -3.17,-16.7 -3.52,-3.6 -9.02,-3.59 -13.69,-4.14 -9.5,-0.18 -19.39,-0.79 -28.49,2.49 -3.28,1.04 -4.98,4.32 -5.64,7.48 -1.87,8.48 -1.88,17.23 -1.87,25.88 0.11,11.56 -0.07,23.29 2.4,34.66 0.65,4.16 4.48,6.72 8.32,7.64 8.88,2.21 18.15,1.89 27.22,1.35 4.73,-0.62 10.49,-0.93 13.46,-5.27 3.17,-5.18 2.64,-11.55 2.47,-17.37 7.38,-0.03 14.75,-0.02 22.13,0 -0.09,9.19 -0.25,18.68 -3.59,27.38 -1.72,4.55 -5.27,8.41 -9.87,10.15 -9.03,3.62 -18.93,3.85 -28.51,4.43 -11.11,0.19 -22.36,-0.08 -33.22,-2.67 -6.37,-1.66 -13.33,-4.58 -16.28,-10.91 -3.77,-8.37 -4.46,-17.68 -5.43,-26.69 -0.81,-11.9 -1.33,-23.82 -1.04,-35.74 0.57,-9.65 1.45,-19.82 6.66,-28.23 2.77,-4.68 7.63,-7.61 12.67,-9.33 z"
         id="C"
         inkscape:connector-curvature="0"
         style="fill:#ffffff" />
      <path
         d="m 492.6,588.03 c 7.62,0.01 15.24,-0.21 22.85,0.11 7.41,23.51 15.55,46.78 23.03,70.26 2.91,9.02 4.97,18.3 7.98,27.29 3.37,-9.7 5.53,-19.78 8.83,-29.5 7.31,-22.71 14.82,-45.35 22.12,-68.06 7.52,-0.32 15.06,-0.04 22.59,-0.14 v 2.49 c -12.38,37.73 -24.47,75.56 -36.6,113.38 -11.32,0.23 -22.66,0.26 -33.98,-0.02 -12.06,-38.67 -24.7,-77.16 -36.82,-115.81 z"
         id="V"
         inkscape:connector-curvature="0"
         style="fill:#ffffff" />
    </g>
  </g>
</svg>
